HIERARCHY
ROOT Hips
{
     OFFSET -22.03220 92.74130 -27.62860
     CHANNELS 6 Xposition Yposition Zposition Zrotation Xrotation Yrotation
     JOINT Spine
     {
          OFFSET 0.00000 11.89050 0.00000
          CHANNELS 3 Zrotation Xrotation Yrotation
          JOINT Spine1
          {
               OFFSET 0.00000 25.65740 0.12766
               CHANNELS 3 Zrotation Xrotation Yrotation
               JOINT HEad
               {
                    OFFSET -0.00000 8.73416 0.01134
                    CHANNELS 3 Zrotation Xrotation Yrotation
                    End Site
                    {
                         OFFSET -0.29000 12.77420 2.51395
                    }
               }
               JOINT LeftShoulder1
               {
                    OFFSET 8.99000 -0.36225 -0.22000
                    CHANNELS 3 Zrotation Xrotation Yrotation
                    JOINT LeftArm
                    {
                         OFFSET 10.28270 -0.00338 0.32212
                         CHANNELS 3 Zrotation Xrotation Yrotation
                         JOINT LeftForeArm
                         {
                              OFFSET 32.76690 0.09914 -1.42434
                              CHANNELS 3 Zrotation Xrotation Yrotation
                              JOINT LeftHand
                              {
                                   OFFSET 27.56430 0.08536 1.02216
                                   CHANNELS 3 Zrotation Xrotation Yrotation
                                   End Site
                                   {
                                        OFFSET 16.74430 -0.60000 1.50291
                                   }
                              }
                         }
                    }
               }
               JOINT RightShoulder
               {
                    OFFSET -8.99000 -0.36225 -0.22000
                    CHANNELS 3 Zrotation Xrotation Yrotation
                    JOINT RightArm
                    {
                         OFFSET -10.28270 -0.00338 0.32212
                         CHANNELS 3 Zrotation Xrotation Yrotation
                         JOINT RightForeArm
                         {
                              OFFSET -32.89710 0.09914 -1.42434
                              CHANNELS 3 Zrotation Xrotation Yrotation
                              JOINT RightHand
                              {
                                   OFFSET -27.49210 0.08536 1.02216
                                   CHANNELS 3 Zrotation Xrotation Yrotation
                                   End Site
                                   {
                                        OFFSET -16.63120 -0.60000 1.50291
                                   }
                              }
                         }
                    }
               }
          }
     }
     JOINT LeftUpLeg
     {
          OFFSET 8.94580 -8.66707 0.10165
          CHANNELS 3 Zrotation Xrotation Yrotation
          JOINT LeftLeg
          {
               OFFSET 0.00000 -44.42270 1.37270
               CHANNELS 3 Zrotation Xrotation Yrotation
               JOINT LeftFoot
               {
                    OFFSET -0.25355 -42.09240 -1.46059
                    CHANNELS 3 Zrotation Xrotation Yrotation
                    JOINT LeftToes
                    {
                         OFFSET -0.04000 -4.41509 8.49910
                         CHANNELS 3 Zrotation Xrotation Yrotation
                         End Site
                         {
                              OFFSET 0.08000 -0.04745 9.77979
                         }
                    }
               }
          }
     }
     JOINT RightUpLeg
     {
          OFFSET -8.94580 -8.66707 0.10165
          CHANNELS 3 Zrotation Xrotation Yrotation
          JOINT RightLeg
          {
               OFFSET -0.00000 -44.42270 1.37270
               CHANNELS 3 Zrotation Xrotation Yrotation
               JOINT RightFoot
               {
                    OFFSET 0.25355 -42.09240 -1.46059
                    CHANNELS 3 Zrotation Xrotation Yrotation
                    JOINT RightToes
                    {
                         OFFSET 0.04000 -4.41509 8.49910
                         CHANNELS 3 Zrotation Xrotation Yrotation
                         End Site
                         {
                              OFFSET -0.08000 -0.13745 9.77979
                         }
                    }
               }
          }
     }
}
MOTION
Frames: 10
Frame Time: 0.01667
-16.14270 90.76750 35.50760 -25.55520 16.37650 170.28400 -0.21415 17.66370 8.63370 -14.36020 33.95130 23.16240 -15.29960 -7.81652 20.28070 -0.00000 -0.00000 0.00000 -68.04500 -5.99881 1.93705 -36.38270 -25.86180 -82.33670 7.75456 8.82394 -13.24220 -0.06674 0.72161 11.71380 79.67490 19.98660 64.04060 0.12763 28.50870 85.80250 23.40700 12.75250 9.21792 5.68800 -26.73490 -23.28750 -18.93520 1.10461 49.49530 -6.49789 10.78120 0.96187 -0.00000 -0.00000 -0.00000 -42.65300 1.56951 1.45266 56.93580 24.54900 -82.69760 -34.23300 -26.85060 -6.46882 5.23449 -37.03590 10.19030 
-17.97260 90.99400 34.33280 -22.52250 17.57620 163.68401 -1.03606 17.32740 8.26060 -14.06500 33.26380 21.79600 -14.67850 -7.68862 17.25570 -0.00000 -0.00000 0.00000 -64.07470 -8.30864 3.38605 -37.28340 -20.16090 -83.10230 9.12489 8.63169 -13.00210 0.73698 0.80496 11.47620 77.44690 19.40160 65.27650 -0.95244 28.66950 85.96160 23.79380 12.61970 8.38159 7.52459 -25.61630 -24.87830 -19.95080 1.42011 51.53060 -5.51695 11.03150 0.81478 0.00000 0.00000 0.00000 -42.44780 2.68181 -0.17130 56.62850 22.32500 -83.25830 -33.03490 -28.84280 -6.89937 3.79039 -31.46320 7.78622 
-19.61720 91.17580 32.97250 -19.45900 18.34560 157.18300 -1.78378 16.98930 7.88032 -13.76310 32.56130 20.54780 -13.89300 -7.56581 14.17720 -0.00000 -0.00000 0.00000 -60.02790 -11.40610 4.28879 -38.28740 -14.56650 -83.51230 10.43840 8.44594 -12.84760 1.59974 0.89369 11.27160 75.85530 18.71320 66.32150 -2.38647 28.70760 86.39550 23.97320 12.52360 7.84335 9.13339 -24.44330 -25.86420 -20.50270 1.40670 51.60450 -5.25582 11.28200 0.78220 0.00000 -0.00000 -0.00000 -42.33530 3.56748 -1.00366 56.40270 20.61520 -82.21200 -32.54590 -29.67270 -7.06890 3.10596 -28.05100 6.68860 
-21.09400 91.28270 31.41710 -16.29850 18.63240 150.73399 -2.26508 16.62090 7.53591 -13.43260 31.85990 19.48120 -12.96890 -7.54046 11.19080 -0.00000 -0.00000 0.00000 -56.12280 -15.39340 4.49997 -39.15710 -9.24565 -83.56430 11.72250 8.25449 -12.82880 2.50059 0.97759 10.97490 74.90930 17.98270 67.10830 -3.32975 28.61980 86.83540 23.85490 12.47270 7.66682 10.62370 -23.48740 -26.44230 -20.58400 1.49951 50.42070 -5.71741 10.92470 0.84276 -0.00000 -0.00000 -0.00000 -42.28510 4.04012 -0.81034 56.22580 19.40090 -79.69470 -32.89920 -29.06270 -6.94366 3.08697 -27.95640 6.64665 
-22.40630 91.29940 29.68970 -13.09240 18.43910 144.35100 -2.46835 16.25170 7.24958 -13.08640 31.22360 18.61290 -11.89510 -7.70436 8.45879 -0.00000 -0.00000 0.00000 -52.70800 -20.23880 3.93051 -40.01120 -4.36683 -83.36500 12.95930 8.05194 -12.97730 3.40572 1.04307 10.48600 74.59830 17.22100 67.68640 -3.33856 28.47580 87.13180 23.53190 12.45220 7.73331 12.03820 -22.87390 -26.84860 -20.28870 1.94489 48.92990 -6.70016 9.70182 0.93821 0.00000 0.00000 0.00000 -42.21790 4.13729 0.33575 55.96200 18.41750 -76.18170 -33.89470 -27.31870 -6.56254 3.60963 -30.67000 7.43334 
-23.56240 91.24480 27.82080 -9.89330 17.83210 138.06000 -2.42752 15.91540 7.01125 -12.73820 30.71630 17.89860 -10.57880 -8.10651 6.15531 -0.00000 -0.00000 0.00000 -50.12880 -25.75930 2.58027 -41.04740 0.04533 -82.98270 14.14460 7.83415 -13.28760 4.32276 1.08489 9.78795 74.82550 16.43940 68.12890 -2.68890 28.35130 87.41560 23.15040 12.43980 7.87118 13.40350 -22.55460 -27.25330 -19.77760 2.79955 47.93900 -7.94139 7.73699 1.00281 -0.00000 -0.00000 -0.00000 -42.00570 4.00682 2.00924 55.48610 17.54490 -72.13160 -35.14840 -25.02050 -6.00508 4.49718 -34.61150 8.76562 
-24.57450 91.16740 25.82990 -6.72182 16.88250 131.85201 -2.16517 15.62770 6.79016 -12.38880 30.35320 17.26880 -8.95201 -8.65293 4.40398 -0.00000 -0.00000 0.00000 -48.59220 -31.63730 0.52249 -42.27740 4.12236 -82.42900 15.26460 7.60612 -13.70140 5.24108 1.10961 9.02289 75.44970 15.63550 68.44090 -2.03556 28.25620 87.92040 22.80210 12.41450 7.93276 14.74170 -22.35750 -27.68860 -19.18870 3.98575 47.73920 -9.19223 5.43731 1.00175 0.00000 -0.00000 -0.00000 -41.53860 3.71202 3.67988 54.73970 16.97920 -67.85850 -36.24490 -22.62910 -5.34182 5.47020 -38.19190 10.20670 
-25.44020 91.12070 23.73230 -3.62624 15.65450 125.73300 -1.76842 15.40110 6.54696 -12.03640 30.10810 16.64230 -7.11316 -9.11304 3.19597 -0.00000 -0.00000 0.00000 -48.13510 -37.43900 -2.17229 -43.51360 7.99271 -81.73330 16.27780 7.38547 -14.12320 6.09360 1.13437 8.44335 76.32500 14.75600 68.58340 -1.78328 28.13970 88.67750 22.51760 12.36690 7.85137 16.04040 -22.05210 -28.07950 -18.58060 5.28295 47.97850 -10.24090 3.27348 0.94283 0.00000 0.00000 0.00000 -40.79530 3.25351 5.08674 53.69710 16.91180 -63.57890 -36.90780 -20.32250 -4.61058 6.28567 -40.72790 11.40630 
-26.14380 91.14500 21.55590 -0.69604 14.20050 119.78300 -1.37963 15.23500 6.23865 -11.67620 29.94290 15.93210 -5.24853 -9.31949 2.42614 -0.00000 -0.00000 0.00000 -48.66590 -42.66340 -5.47415 -44.54940 11.64230 -80.98190 17.13570 7.19385 -14.46850 6.85079 1.17986 8.22301 77.26460 13.72640 68.54520 -1.80482 27.96030 89.44720 22.31170 12.30520 7.65606 17.29550 -21.43930 -28.36470 -17.97700 6.33673 47.96060 -10.97550 1.57721 0.86180 0.00000 -0.00000 -0.00000 -39.81840 2.68526 6.34423 52.31870 17.20650 -59.41300 -37.09870 -18.06780 -3.82591 6.89151 -42.40210 12.28350 
-26.67480 91.25580 19.32660 1.98819 12.59700 114.10500 -1.15195 15.12960 5.84473 -11.31420 29.82840 15.07900 -3.46648 -9.24623 1.96565 -0.00000 -0.00000 0.00000 -49.99720 -46.87740 -9.33247 -45.33920 14.92280 -80.25710 17.76670 7.05186 -14.70510 7.59994 1.25674 8.31736 78.03490 12.54000 68.36380 -1.73632 27.74210 89.96250 22.17340 12.24980 7.45322 18.49010 -20.39650 -28.55630 -17.41720 6.84504 47.15500 -11.44700 0.46742 0.79625 0.00000 -0.00000 -0.00000 -38.70770 2.13076 7.70986 50.57890 17.53170 -55.35840 -36.93730 -15.79020 -3.00282 7.36379 -43.61610 12.94750 
